<?xml version="1.0" standalone="no"?>
<!DOCTYPE svg PUBLIC "-//W3C//DTD SVG 20010904//EN"
 "http://www.w3.org/TR/2001/REC-SVG-20010904/DTD/svg10.dtd">
<svg version="1.0" xmlns="http://www.w3.org/2000/svg"
 width="429.000000pt" height="242.000000pt" viewBox="0 0 429.000000 242.000000"
 preserveAspectRatio="xMidYMid meet">

<g transform="translate(0.000000,242.000000) scale(0.100000,-0.100000)"
fill="#000000" stroke="none">
<path d="M1471 2310 c-74 -59 -147 -185 -173 -298 -13 -61 -14 -62 -142 -92
-43 -11 -81 -22 -84 -25 -20 -20 51 -8 186 31 21 6 22 4 22 -45 0 -113 49
-155 145 -127 43 13 50 13 60 0 20 -29 66 -13 102 34 l33 43 -6 -44 c-13 -94
45 -116 130 -51 26 20 45 38 42 41 -3 3 -23 -9 -44 -26 -74 -58 -97 -37 -70
64 23 84 -30 84 -86 -1 -42 -63 -66 -70 -66 -21 0 85 56 177 108 177 36 0 52
-16 52 -53 0 -16 4 -26 10 -22 18 11 10 51 -15 75 -20 18 -31 22 -61 17 -63
-10 -144 -106 -144 -169 0 -27 -24 -42 -83 -53 -63 -12 -80 32 -56 144 10 46
15 52 55 73 106 52 234 221 234 308 0 46 -14 60 -61 60 -28 0 -49 -10 -88 -40z
m127 -17 c4 -43 -25 -106 -80 -174 -45 -54 -153 -138 -164 -127 -8 9 52 158
87 213 74 119 150 161 157 88z"/>
<path d="M2007 1889 c-17 -26 -41 -137 -52 -236 -4 -35 -9 -63 -13 -63 -3 0
-178 9 -390 20 -354 19 -448 21 -361 6 42 -8 389 -41 598 -58 l154 -12 -7 -97
c-4 -53 -9 -174 -12 -269 l-5 -171 -73 -2 -73 -2 -45 65 -46 66 24 39 c27 45
29 63 13 99 -17 36 -59 51 -104 36 -70 -23 -90 -103 -45 -185 l25 -45 -95 -95
c-52 -52 -103 -95 -112 -95 -23 0 -23 33 -3 131 18 83 10 102 -39 97 -26 -3
-38 -14 -72 -68 -60 -95 -88 -125 -107 -117 -22 8 -22 53 -2 132 38 146 91
206 170 191 29 -6 39 -14 51 -41 8 -19 14 -45 15 -57 0 -23 0 -23 10 1 31 77
-53 146 -144 119 -56 -17 -131 -88 -166 -160 -17 -34 -31 -67 -31 -75 0 -7 -3
-13 -7 -13 -5 0 -44 -11 -87 -25 l-80 -25 -112 115 c-205 209 -270 338 -246
491 14 87 46 155 97 204 33 32 41 35 95 35 49 -1 66 -6 102 -31 57 -39 85 -84
100 -155 14 -69 28 -77 28 -16 0 94 -83 201 -176 227 -139 39 -321 -54 -391
-199 -31 -66 -42 -187 -24 -271 24 -116 126 -274 261 -404 39 -38 69 -70 67
-72 -2 -2 -41 -17 -86 -34 -313 -112 -443 -269 -402 -481 44 -219 206 -343
426 -324 209 19 356 111 433 272 36 77 37 80 37 198 -1 106 -4 128 -28 188
-29 75 -72 143 -124 198 -19 20 -31 39 -26 42 13 8 115 37 130 37 8 0 13 -12
13 -30 0 -40 39 -80 78 -80 40 0 75 30 112 95 17 30 32 55 33 55 2 0 1 -33 -1
-74 -4 -65 -1 -77 17 -95 14 -14 34 -21 58 -21 33 0 46 10 141 105 57 58 105
105 107 105 3 0 55 -78 55 -83 0 -2 -33 -20 -74 -40 -88 -44 -126 -90 -126
-156 0 -109 89 -163 213 -127 130 38 177 137 127 268 -11 29 -20 54 -20 54 0
7 87 10 108 5 25 -7 27 -12 33 -70 9 -96 60 -151 141 -153 109 -2 207 104 283
307 13 33 28 60 34 59 6 -1 21 -2 32 -2 25 -2 25 -7 -21 -137 -25 -69 -33
-108 -34 -168 -1 -74 0 -80 27 -103 41 -35 113 -33 193 5 34 16 64 33 68 39 3
5 25 0 53 -14 75 -39 161 -29 231 25 41 32 112 137 151 224 33 73 96 262 106
320 4 20 11 39 15 42 11 7 80 -26 80 -37 0 -5 -17 -43 -39 -86 -106 -212 -169
-497 -131 -597 18 -47 58 -75 107 -75 73 0 128 42 191 144 28 46 30 48 41 28
14 -26 70 -45 107 -36 16 4 54 19 85 35 l55 27 10 -21 c12 -28 51 -47 78 -38
12 4 41 36 65 72 24 35 41 55 38 44 -25 -92 -14 -145 33 -165 22 -9 35 -8 63
4 36 15 131 95 123 104 -3 2 -31 -17 -64 -42 -95 -75 -123 -60 -97 50 8 36 15
76 15 90 0 22 -4 25 -32 22 -28 -3 -40 -13 -83 -78 -63 -94 -80 -97 -79 -15 0
43 9 78 29 123 32 71 64 102 106 102 36 0 56 -21 65 -67 6 -34 8 -35 15 -15
13 36 -13 87 -50 100 -51 18 -91 4 -147 -52 -47 -48 -62 -75 -90 -170 -10 -31
-72 -70 -131 -82 -30 -6 -33 -4 -33 18 0 14 25 83 56 154 l56 128 -26 23 c-48
41 -58 33 -114 -86 -29 -59 -52 -111 -52 -115 0 -3 -23 -46 -50 -95 -78 -138
-147 -184 -196 -130 -16 18 -19 36 -19 118 1 115 29 208 127 413 46 98 59 135
52 147 -9 14 -108 71 -145 83 -8 3 -8 18 1 62 15 75 8 104 -32 120 -35 15 -86
6 -104 -18 -9 -13 -55 -12 -355 4 -189 10 -415 22 -501 26 -87 4 -158 9 -158
13 0 3 7 68 17 144 18 154 17 161 -44 173 -26 5 -34 2 -46 -17z m1196 -359
c10 -15 12 -32 6 -63 -4 -23 -8 -45 -9 -49 0 -14 -24 -8 -49 11 l-24 18 26 6
c47 12 45 64 -4 74 -36 7 -28 23 11 23 18 0 34 -8 43 -20z m-701 -30 c211 -16
429 -32 485 -36 90 -6 104 -10 117 -28 7 -12 30 -30 49 -41 43 -23 43 -20 -15
-205 -74 -235 -177 -402 -265 -431 -52 -17 -122 -6 -144 22 -18 24 -17 24 35
71 85 75 137 168 121 217 -8 28 -55 51 -100 51 -95 0 -167 -90 -168 -211 0
-32 7 -69 16 -87 15 -32 15 -32 -16 -56 -61 -45 -133 -58 -162 -29 -22 22 -14
78 32 208 50 144 52 151 43 165 -5 7 -39 21 -76 30 l-69 18 3 34 c6 66 -28
117 -79 118 -86 1 -82 -109 6 -158 17 -9 31 -18 33 -18 9 -4 -64 -170 -97
-221 -66 -102 -152 -156 -190 -119 -24 24 -27 290 -7 527 9 102 16 191 16 197
0 16 -6 16 432 -18z m545 10 c22 0 33 -5 33 -15 0 -12 -13 -13 -67 -9 -117 9
-153 15 -153 26 0 8 24 9 77 4 42 -3 91 -6 110 -6z m103 -21 c0 -5 -11 -9 -25
-9 -14 0 -25 6 -25 14 0 9 8 12 25 8 14 -2 25 -8 25 -13z m-1462 -211 c18 -18
14 -70 -6 -96 -18 -23 -18 -23 -35 -4 -45 49 -5 146 41 100z m662 -17 c15 -28
13 -91 -3 -91 -37 0 -82 57 -72 90 9 27 60 27 75 1z m491 -181 c44 -24 7 -111
-84 -198 -53 -51 -62 -45 -52 34 9 71 28 117 62 149 30 27 44 30 74 15z
m-1142 -172 c11 -35 16 -91 13 -146 -3 -49 -49 -92 -99 -92 -52 0 -98 30 -113
75 -23 69 11 122 104 166 34 16 66 29 73 29 6 0 16 -15 22 -32z m-913 -88
c101 -117 153 -255 140 -373 -12 -122 -109 -256 -231 -324 -43 -24 -61 -28
-130 -27 -165 1 -274 93 -320 271 -46 176 27 311 223 412 76 39 232 99 257
100 6 0 33 -27 61 -59z"/>
<path d="M3681 1175 c-29 -37 -50 -69 -47 -72 10 -10 103 38 132 68 31 33 29
63 -6 67 -20 2 -36 -11 -79 -63z"/>
</g>
</svg>
